<svg xmlns="http://www.w3.org/2000/svg" viewBox="0 0 800 800" width="800" height="800">
  <defs>
    <linearGradient id="bg" x1="0" y1="0" x2="1" y2="1">
      <stop offset="0%" stop-color="#ffcc80"/>
      <stop offset="50%" stop-color="#ffb74d"/>
      <stop offset="100%" stop-color="#ffa726"/>
    </linearGradient>
    <filter id="blur">
      <feGaussianBlur in="SourceGraphic" stdDeviation="2"/>
    </filter>
  </defs>

  <!-- 背景渐变 -->
  <rect width="800" height="800" fill="url(#bg)"/>

  <!-- 装饰圆环 -->
  <circle cx="650" cy="150" r="200" fill="white" opacity="0.05"/>
  <circle cx="150" cy="650" r="150" fill="white" opacity="0.03"/>

  <!-- 意境图形 -->
  
    <g opacity="0.2">
      <!-- 竹简 -->
      <rect x="300" y="400" width="200" height="300" rx="8" fill="#fff8e1" stroke="#8d6e63" stroke-width="2"/>
      <line x1="330" y1="440" x2="470" y2="440" stroke="#8d6e63" stroke-width="1.5" opacity="0.4"/>
      <line x1="330" y1="470" x2="470" y2="470" stroke="#8d6e63" stroke-width="1.5" opacity="0.4"/>
      <line x1="330" y1="500" x2="450" y2="500" stroke="#8d6e63" stroke-width="1.5" opacity="0.4"/>
      <line x1="330" y1="530" x2="470" y2="530" stroke="#8d6e63" stroke-width="1.5" opacity="0.4"/>
      <line x1="330" y1="560" x2="430" y2="560" stroke="#8d6e63" stroke-width="1.5" opacity="0.4"/>
      <line x1="330" y1="590" x2="470" y2="590" stroke="#8d6e63" stroke-width="1.5" opacity="0.4"/>
      <line x1="330" y1="620" x2="460" y2="620" stroke="#8d6e63" stroke-width="1.5" opacity="0.4"/>
      <!-- 印章 -->
      <rect x="420" y="640" width="40" height="40" rx="4" fill="#c62828" opacity="0.6"/>
    </g>

  <!-- 底部渐隐遮罩 -->
  <defs>
    <linearGradient id="fade" x1="0" y1="0" x2="0" y2="1">
      <stop offset="0%" stop-color="transparent"/>
      <stop offset="100%" stop-color="rgba(0,0,0,0.12)"/>
    </linearGradient>
  </defs>
  <rect y="500" width="800" height="300" fill="url(#fade)"/>

  <!-- 作品标题 -->
  <text x="400" y="680" text-anchor="middle"
        font-family="'Noto Serif SC', 'Source Han Serif SC', 'STSong', serif"
        font-size="52" font-weight="700"
        fill="#2c1810"
        style="text-shadow: 0 2px 8px rgba(255,255,255,0.8)">
    出师表
  </text>

  <!-- 作者 · 朝代 · 主题 -->
  <text x="400" y="730" text-anchor="middle"
        font-family="'Noto Sans SC', 'PingFang SC', sans-serif"
        font-size="22"
        fill="rgba(44,24,16,0.6)">
    诸葛亮 · 三国 · 家国与责任
  </text>
</svg>