<svg xmlns="http://www.w3.org/2000/svg" viewBox="0 0 800 800" width="800" height="800">
  <defs>
    <linearGradient id="bg" x1="0" y1="0" x2="1" y2="1">
      <stop offset="0%" stop-color="#f8bbd0"/>
      <stop offset="50%" stop-color="#f48fb1"/>
      <stop offset="100%" stop-color="#fce4ec"/>
    </linearGradient>
    <filter id="blur">
      <feGaussianBlur in="SourceGraphic" stdDeviation="2"/>
    </filter>
  </defs>

  <!-- 背景渐变 -->
  <rect width="800" height="800" fill="url(#bg)"/>

  <!-- 装饰圆环 -->
  <circle cx="650" cy="150" r="200" fill="white" opacity="0.05"/>
  <circle cx="150" cy="650" r="150" fill="white" opacity="0.03"/>

  <!-- 意境图形 -->
  
    <g opacity="0.2">
      <!-- 花枝 -->
      <path d="M100 800 Q200 500 350 450 Q400 430 450 400" stroke="#6d4c41" stroke-width="4" fill="none"/>
      <path d="M450 400 Q500 380 550 350" stroke="#6d4c41" stroke-width="3" fill="none"/>
      <!-- 花朵 -->
      <circle cx="350" cy="440" r="20" fill="#f48fb1"/>
      <circle cx="310" cy="460" r="15" fill="#f06292"/>
      <circle cx="390" cy="420" r="18" fill="#f8bbd0"/>
      <circle cx="420" cy="400" r="14" fill="#f48fb1"/>
      <circle cx="460" cy="380" r="16" fill="#f06292"/>
      <circle cx="500" cy="360" r="12" fill="#f8bbd0"/>
      <circle cx="530" cy="345" r="14" fill="#f48fb1"/>
      <!-- 小鸟 -->
      <ellipse cx="550" cy="300" rx="15" ry="10" fill="#795548"/>
      <circle cx="563" cy="295" r="6" fill="#5d4037"/>
      <path d="M569 293 L580 290" stroke="#5d4037" stroke-width="2"/>
    </g>

  <!-- 底部渐隐遮罩 -->
  <defs>
    <linearGradient id="fade" x1="0" y1="0" x2="0" y2="1">
      <stop offset="0%" stop-color="transparent"/>
      <stop offset="100%" stop-color="rgba(0,0,0,0.12)"/>
    </linearGradient>
  </defs>
  <rect y="500" width="800" height="300" fill="url(#fade)"/>

  <!-- 作品标题 -->
  <text x="400" y="680" text-anchor="middle"
        font-family="'Noto Serif SC', 'Source Han Serif SC', 'STSong', serif"
        font-size="52" font-weight="700"
        fill="#2c1810"
        style="text-shadow: 0 2px 8px rgba(255,255,255,0.8)">
    春晓
  </text>

  <!-- 作者 · 朝代 · 主题 -->
  <text x="400" y="730" text-anchor="middle"
        font-family="'Noto Sans SC', 'PingFang SC', sans-serif"
        font-size="22"
        fill="rgba(44,24,16,0.6)">
    孟浩然 · 唐 · 春
  </text>
</svg>