<svg xmlns="http://www.w3.org/2000/svg" viewBox="0 0 800 800" width="800" height="800">
  <defs>
    <linearGradient id="bg" x1="0" y1="0" x2="1" y2="1">
      <stop offset="0%" stop-color="#ffe0b2"/>
      <stop offset="50%" stop-color="#ffcc80"/>
      <stop offset="100%" stop-color="#fff3e0"/>
    </linearGradient>
    <filter id="blur">
      <feGaussianBlur in="SourceGraphic" stdDeviation="2"/>
    </filter>
  </defs>

  <!-- 背景渐变 -->
  <rect width="800" height="800" fill="url(#bg)"/>

  <!-- 装饰圆环 -->
  <circle cx="650" cy="150" r="200" fill="white" opacity="0.05"/>
  <circle cx="150" cy="650" r="150" fill="white" opacity="0.03"/>

  <!-- 意境图形 -->
  
    <g opacity="0.2">
      <!-- 落日 -->
      <circle cx="600" cy="250" r="60" fill="#ff8f00"/>
      <circle cx="600" cy="250" r="50" fill="#ffb300"/>
      <!-- 山 -->
      <path d="M0 800 L150 500 L300 650 L500 400 L700 600 L800 800 Z" fill="#4e342e"/>
      <!-- 楼 -->
      <rect x="350" y="500" width="60" height="120" fill="#5d4037"/>
      <polygon points="340,500 420,500 380,450" fill="#795548"/>
      <rect x="355" y="520" width="20" height="30" fill="#3e2723"/>
      <!-- 江河 -->
      <path d="M0 750 Q200 730 400 750 Q600 770 800 750 L800 800 L0 800 Z" fill="#ff8f00" opacity="0.3"/>
    </g>

  <!-- 底部渐隐遮罩 -->
  <defs>
    <linearGradient id="fade" x1="0" y1="0" x2="0" y2="1">
      <stop offset="0%" stop-color="transparent"/>
      <stop offset="100%" stop-color="rgba(0,0,0,0.12)"/>
    </linearGradient>
  </defs>
  <rect y="500" width="800" height="300" fill="url(#fade)"/>

  <!-- 作品标题 -->
  <text x="400" y="680" text-anchor="middle"
        font-family="'Noto Serif SC', 'Source Han Serif SC', 'STSong', serif"
        font-size="52" font-weight="700"
        fill="#2c1810"
        style="text-shadow: 0 2px 8px rgba(255,255,255,0.8)">
    登鹳雀楼
  </text>

  <!-- 作者 · 朝代 · 主题 -->
  <text x="400" y="730" text-anchor="middle"
        font-family="'Noto Sans SC', 'PingFang SC', sans-serif"
        font-size="22"
        fill="rgba(44,24,16,0.6)">
    王之涣 · 唐 · 登高望远
  </text>
</svg>