<svg xmlns="http://www.w3.org/2000/svg" viewBox="0 0 800 800" width="800" height="800">
  <defs>
    <linearGradient id="bg" x1="0" y1="0" x2="1" y2="1">
      <stop offset="0%" stop-color="#c8e6c9"/>
      <stop offset="50%" stop-color="#dcedc8"/>
      <stop offset="100%" stop-color="#a5d6a7"/>
    </linearGradient>
    <filter id="blur">
      <feGaussianBlur in="SourceGraphic" stdDeviation="2"/>
    </filter>
  </defs>

  <!-- 背景渐变 -->
  <rect width="800" height="800" fill="url(#bg)"/>

  <!-- 装饰圆环 -->
  <circle cx="650" cy="150" r="200" fill="white" opacity="0.05"/>
  <circle cx="150" cy="650" r="150" fill="white" opacity="0.03"/>

  <!-- 意境图形 -->
  
    <g opacity="0.2">
      <!-- 草地 -->
      <path d="M0 650 Q200 620 400 650 Q600 680 800 650 L800 800 L0 800 Z" fill="#388e3c"/>
      <!-- 草茎 -->
      <line x1="100" y1="680" x2="95" y2="630" stroke="#2e7d32" stroke-width="2"/>
      <line x1="150" y1="670" x2="155" y2="620" stroke="#388e3c" stroke-width="2"/>
      <line x1="250" y1="660" x2="248" y2="600" stroke="#2e7d32" stroke-width="2"/>
      <line x1="350" y1="650" x2="352" y2="590" stroke="#388e3c" stroke-width="2"/>
      <line x1="450" y1="660" x2="448" y2="600" stroke="#2e7d32" stroke-width="2"/>
      <line x1="550" y1="670" x2="555" y2="620" stroke="#388e3c" stroke-width="2"/>
      <line x1="650" y1="680" x2="648" y2="630" stroke="#2e7d32" stroke-width="2"/>
      <line x1="700" y1="675" x2="705" y2="625" stroke="#388e3c" stroke-width="2"/>
      <!-- 远方送别人影 -->
      <ellipse cx="700" cy="600" rx="8" ry="15" fill="#5d4037" opacity="0.4"/>
      <ellipse cx="650" cy="610" rx="7" ry="13" fill="#5d4037" opacity="0.3"/>
    </g>

  <!-- 底部渐隐遮罩 -->
  <defs>
    <linearGradient id="fade" x1="0" y1="0" x2="0" y2="1">
      <stop offset="0%" stop-color="transparent"/>
      <stop offset="100%" stop-color="rgba(0,0,0,0.12)"/>
    </linearGradient>
  </defs>
  <rect y="500" width="800" height="300" fill="url(#fade)"/>

  <!-- 作品标题 -->
  <text x="400" y="680" text-anchor="middle"
        font-family="'Noto Serif SC', 'Source Han Serif SC', 'STSong', serif"
        font-size="52" font-weight="700"
        fill="#2c1810"
        style="text-shadow: 0 2px 8px rgba(255,255,255,0.8)">
    赋得古原草送别
  </text>

  <!-- 作者 · 朝代 · 主题 -->
  <text x="400" y="730" text-anchor="middle"
        font-family="'Noto Sans SC', 'PingFang SC', sans-serif"
        font-size="22"
        fill="rgba(44,24,16,0.6)">
    白居易 · 唐 · 写草
  </text>
</svg>