<svg xmlns="http://www.w3.org/2000/svg" viewBox="0 0 800 800" width="800" height="800">
  <defs>
    <linearGradient id="bg" x1="0" y1="0" x2="1" y2="1">
      <stop offset="0%" stop-color="#c8e6c9"/>
      <stop offset="50%" stop-color="#a5d6a7"/>
      <stop offset="100%" stop-color="#81c784"/>
    </linearGradient>
    <filter id="blur">
      <feGaussianBlur in="SourceGraphic" stdDeviation="2"/>
    </filter>
  </defs>

  <!-- 背景渐变 -->
  <rect width="800" height="800" fill="url(#bg)"/>

  <!-- 装饰圆环 -->
  <circle cx="650" cy="150" r="200" fill="white" opacity="0.05"/>
  <circle cx="150" cy="650" r="150" fill="white" opacity="0.03"/>

  <!-- 意境图形 -->
  
    <g opacity="0.2">
      <!-- 远山 -->
      <path d="M0 800 Q200 500 400 650 Q500 700 600 600 Q700 500 800 700 L800 800 Z" fill="#2e7d32"/>
      <!-- 小屋 -->
      <rect x="350" y="620" width="100" height="70" fill="#5d4037" rx="2"/>
      <polygon points="340,620 450,620 395,570" fill="#795548"/>
      <rect x="375" y="650" width="25" height="40" fill="#3e2723"/>
      <!-- 青苔小路 -->
      <path d="M400 700 Q380 750 350 800" stroke="#4caf50" stroke-width="4" fill="none" opacity="0.5"/>
    </g>

  <!-- 底部渐隐遮罩 -->
  <defs>
    <linearGradient id="fade" x1="0" y1="0" x2="0" y2="1">
      <stop offset="0%" stop-color="transparent"/>
      <stop offset="100%" stop-color="rgba(0,0,0,0.12)"/>
    </linearGradient>
  </defs>
  <rect y="500" width="800" height="300" fill="url(#fade)"/>

  <!-- 作品标题 -->
  <text x="400" y="680" text-anchor="middle"
        font-family="'Noto Serif SC', 'Source Han Serif SC', 'STSong', serif"
        font-size="52" font-weight="700"
        fill="#2c1810"
        style="text-shadow: 0 2px 8px rgba(255,255,255,0.8)">
    陋室铭
  </text>

  <!-- 作者 · 朝代 · 主题 -->
  <text x="400" y="730" text-anchor="middle"
        font-family="'Noto Sans SC', 'PingFang SC', sans-serif"
        font-size="22"
        fill="rgba(44,24,16,0.6)">
    刘禹锡 · 唐 · 简朴与高洁
  </text>
</svg>