<svg xmlns="http://www.w3.org/2000/svg" viewBox="0 0 800 800" width="800" height="800">
  <defs>
    <linearGradient id="bg" x1="0" y1="0" x2="1" y2="1">
      <stop offset="0%" stop-color="#bf360c"/>
      <stop offset="50%" stop-color="#d84315"/>
      <stop offset="100%" stop-color="#e65100"/>
    </linearGradient>
    <filter id="blur">
      <feGaussianBlur in="SourceGraphic" stdDeviation="2"/>
    </filter>
  </defs>

  <!-- 背景渐变 -->
  <rect width="800" height="800" fill="url(#bg)"/>

  <!-- 装饰圆环 -->
  <circle cx="650" cy="150" r="200" fill="white" opacity="0.05"/>
  <circle cx="150" cy="650" r="150" fill="white" opacity="0.03"/>

  <!-- 意境图形 -->
  
    <g opacity="0.2">
      <!-- 赤壁悬崖 -->
      <path d="M0 800 L0 300 Q100 250 200 280 L200 800 Z" fill="#bf360c"/>
      <path d="M0 400 L150 380" stroke="#d84315" stroke-width="2" opacity="0.3"/>
      <path d="M0 500 L120 490" stroke="#d84315" stroke-width="2" opacity="0.3"/>
      <!-- 江水 -->
      <path d="M0 650 Q200 630 400 650 Q600 670 800 650 L800 800 L0 800 Z" fill="#1565c0" opacity="0.4"/>
      <!-- 浪花 -->
      <path d="M300 660 Q350 640 400 660 Q450 680 500 660" stroke="white" stroke-width="2" fill="none" opacity="0.3"/>
      <path d="M500 670 Q550 650 600 670 Q650 690 700 670" stroke="white" stroke-width="2" fill="none" opacity="0.3"/>
      <!-- 战船剪影 -->
      <path d="M500 630 Q540 615 580 630 Q540 640 500 630" fill="#3e2723" opacity="0.4"/>
      <line x1="540" y1="630" x2="540" y2="590" stroke="#3e2723" stroke-width="2" opacity="0.4"/>
    </g>

  <!-- 底部渐隐遮罩 -->
  <defs>
    <linearGradient id="fade" x1="0" y1="0" x2="0" y2="1">
      <stop offset="0%" stop-color="transparent"/>
      <stop offset="100%" stop-color="rgba(0,0,0,0.35)"/>
    </linearGradient>
  </defs>
  <rect y="500" width="800" height="300" fill="url(#fade)"/>

  <!-- 作品标题 -->
  <text x="400" y="680" text-anchor="middle"
        font-family="'Noto Serif SC', 'Source Han Serif SC', 'STSong', serif"
        font-size="52" font-weight="700"
        fill="#ffffff"
        style="text-shadow: 0 2px 8px rgba(0,0,0,0.5)">
    念奴娇·赤壁怀古
  </text>

  <!-- 作者 · 朝代 · 主题 -->
  <text x="400" y="730" text-anchor="middle"
        font-family="'Noto Sans SC', 'PingFang SC', sans-serif"
        font-size="22"
        fill="rgba(255,255,255,0.7)">
    苏轼 · 宋 · 历史与豪情
  </text>
</svg>