<svg xmlns="http://www.w3.org/2000/svg" viewBox="0 0 800 800" width="800" height="800">
  <defs>
    <linearGradient id="bg" x1="0" y1="0" x2="1" y2="1">
      <stop offset="0%" stop-color="#4a148c"/>
      <stop offset="50%" stop-color="#6a1b9a"/>
      <stop offset="100%" stop-color="#8e24aa"/>
    </linearGradient>
    <filter id="blur">
      <feGaussianBlur in="SourceGraphic" stdDeviation="2"/>
    </filter>
  </defs>

  <!-- 背景渐变 -->
  <rect width="800" height="800" fill="url(#bg)"/>

  <!-- 装饰圆环 -->
  <circle cx="650" cy="150" r="200" fill="white" opacity="0.05"/>
  <circle cx="150" cy="650" r="150" fill="white" opacity="0.03"/>

  <!-- 意境图形 -->
  
    <g opacity="0.25">
      <!-- 灯笼1 -->
      <ellipse cx="200" cy="300" rx="25" ry="35" fill="#ff6f00"/>
      <rect x="190" y="265" width="20" height="8" fill="#5d4037"/>
      <line x1="200" y1="260" x2="200" y2="230" stroke="#5d4037" stroke-width="2"/>
      <!-- 灯笼2 -->
      <ellipse cx="400" cy="250" rx="30" ry="40" fill="#f44336"/>
      <rect x="388" y="210" width="24" height="8" fill="#5d4037"/>
      <line x1="400" y1="205" x2="400" y2="170" stroke="#5d4037" stroke-width="2"/>
      <!-- 灯笼3 -->
      <ellipse cx="600" cy="280" rx="22" ry="30" fill="#ff6f00"/>
      <rect x="591" y="250" width="18" height="7" fill="#5d4037"/>
      <line x1="600" y1="245" x2="600" y2="220" stroke="#5d4037" stroke-width="2"/>
      <!-- 灯光散射 -->
      <circle cx="200" cy="300" r="60" fill="#ff6f00" opacity="0.08"/>
      <circle cx="400" cy="250" r="70" fill="#f44336" opacity="0.08"/>
      <circle cx="600" cy="280" r="55" fill="#ff6f00" opacity="0.08"/>
      <!-- 人群剪影 -->
      <ellipse cx="300" cy="700" rx="10" ry="18" fill="#1a0033" opacity="0.3"/>
      <ellipse cx="500" cy="710" rx="8" ry="16" fill="#1a0033" opacity="0.3"/>
      <ellipse cx="350" cy="720" rx="9" ry="17" fill="#1a0033" opacity="0.2"/>
    </g>

  <!-- 底部渐隐遮罩 -->
  <defs>
    <linearGradient id="fade" x1="0" y1="0" x2="0" y2="1">
      <stop offset="0%" stop-color="transparent"/>
      <stop offset="100%" stop-color="rgba(0,0,0,0.35)"/>
    </linearGradient>
  </defs>
  <rect y="500" width="800" height="300" fill="url(#fade)"/>

  <!-- 作品标题 -->
  <text x="400" y="680" text-anchor="middle"
        font-family="'Noto Serif SC', 'Source Han Serif SC', 'STSong', serif"
        font-size="52" font-weight="700"
        fill="#ffffff"
        style="text-shadow: 0 2px 8px rgba(0,0,0,0.5)">
    青玉案·元夕
  </text>

  <!-- 作者 · 朝代 · 主题 -->
  <text x="400" y="730" text-anchor="middle"
        font-family="'Noto Sans SC', 'PingFang SC', sans-serif"
        font-size="22"
        fill="rgba(255,255,255,0.7)">
    辛弃疾 · 宋 · 灯火与寻觅
  </text>
</svg>