<svg xmlns="http://www.w3.org/2000/svg" viewBox="0 0 800 800" width="800" height="800">
  <defs>
    <linearGradient id="bg" x1="0" y1="0" x2="1" y2="1">
      <stop offset="0%" stop-color="#f3e5f5"/>
      <stop offset="50%" stop-color="#e1bee7"/>
      <stop offset="100%" stop-color="#ce93d8"/>
    </linearGradient>
    <filter id="blur">
      <feGaussianBlur in="SourceGraphic" stdDeviation="2"/>
    </filter>
  </defs>

  <!-- 背景渐变 -->
  <rect width="800" height="800" fill="url(#bg)"/>

  <!-- 装饰圆环 -->
  <circle cx="650" cy="150" r="200" fill="white" opacity="0.05"/>
  <circle cx="150" cy="650" r="150" fill="white" opacity="0.03"/>

  <!-- 意境图形 -->
  
    <g opacity="0.2">
      <!-- 雨丝 -->
      <line x1="150" y1="100" x2="145" y2="200" stroke="#90a4ae" stroke-width="1.5" opacity="0.3"/>
      <line x1="300" y1="80" x2="295" y2="180" stroke="#90a4ae" stroke-width="1.5" opacity="0.3"/>
      <line x1="450" y1="120" x2="445" y2="220" stroke="#90a4ae" stroke-width="1.5" opacity="0.3"/>
      <line x1="600" y1="90" x2="595" y2="190" stroke="#90a4ae" stroke-width="1.5" opacity="0.3"/>
      <line x1="700" y1="110" x2="695" y2="210" stroke="#90a4ae" stroke-width="1.5" opacity="0.3"/>
      <!-- 海棠枝 -->
      <path d="M200 800 Q300 500 450 400 Q500 380 550 350" stroke="#6d4c41" stroke-width="4" fill="none"/>
      <!-- 海棠花 -->
      <circle cx="400" cy="410" r="22" fill="#e91e63" opacity="0.5"/>
      <circle cx="450" cy="390" r="18" fill="#f06292" opacity="0.5"/>
      <circle cx="350" cy="430" r="15" fill="#ec407a" opacity="0.5"/>
      <circle cx="500" cy="365" r="16" fill="#e91e63" opacity="0.4"/>
      <circle cx="530" cy="345" r="12" fill="#f06292" opacity="0.4"/>
      <!-- 花瓣落地 -->
      <ellipse cx="300" cy="750" rx="6" ry="3" fill="#f06292" opacity="0.4" transform="rotate(30,300,750)"/>
      <ellipse cx="450" cy="770" rx="5" ry="3" fill="#e91e63" opacity="0.3" transform="rotate(-20,450,770)"/>
    </g>

  <!-- 底部渐隐遮罩 -->
  <defs>
    <linearGradient id="fade" x1="0" y1="0" x2="0" y2="1">
      <stop offset="0%" stop-color="transparent"/>
      <stop offset="100%" stop-color="rgba(0,0,0,0.12)"/>
    </linearGradient>
  </defs>
  <rect y="500" width="800" height="300" fill="url(#fade)"/>

  <!-- 作品标题 -->
  <text x="400" y="680" text-anchor="middle"
        font-family="'Noto Serif SC', 'Source Han Serif SC', 'STSong', serif"
        font-size="52" font-weight="700"
        fill="#2c1810"
        style="text-shadow: 0 2px 8px rgba(255,255,255,0.8)">
    如梦令·昨夜雨疏风骤
  </text>

  <!-- 作者 · 朝代 · 主题 -->
  <text x="400" y="730" text-anchor="middle"
        font-family="'Noto Sans SC', 'PingFang SC', sans-serif"
        font-size="22"
        fill="rgba(44,24,16,0.6)">
    李清照 · 宋 · 花事与心绪
  </text>
</svg>