<svg xmlns="http://www.w3.org/2000/svg" viewBox="0 0 800 800" width="800" height="800">
  <defs>
    <linearGradient id="bg" x1="0" y1="0" x2="1" y2="1">
      <stop offset="0%" stop-color="#d1c4e9"/>
      <stop offset="50%" stop-color="#b39ddb"/>
      <stop offset="100%" stop-color="#9575cd"/>
    </linearGradient>
    <filter id="blur">
      <feGaussianBlur in="SourceGraphic" stdDeviation="2"/>
    </filter>
  </defs>

  <!-- 背景渐变 -->
  <rect width="800" height="800" fill="url(#bg)"/>

  <!-- 装饰圆环 -->
  <circle cx="650" cy="150" r="200" fill="white" opacity="0.05"/>
  <circle cx="150" cy="650" r="150" fill="white" opacity="0.03"/>

  <!-- 意境图形 -->
  
    <g opacity="0.2">
      <!-- 书卷 -->
      <rect x="300" y="450" width="200" height="250" rx="10" fill="#fff3e0" stroke="#795548" stroke-width="2"/>
      <rect x="320" y="470" width="160" height="210" rx="4" fill="#fafafa" opacity="0.5"/>
      <!-- 文字线条 -->
      <line x1="335" y1="490" x2="465" y2="490" stroke="#5d4037" stroke-width="1.5" opacity="0.3"/>
      <line x1="335" y1="515" x2="455" y2="515" stroke="#5d4037" stroke-width="1.5" opacity="0.3"/>
      <line x1="335" y1="540" x2="465" y2="540" stroke="#5d4037" stroke-width="1.5" opacity="0.3"/>
      <line x1="335" y1="565" x2="440" y2="565" stroke="#5d4037" stroke-width="1.5" opacity="0.3"/>
      <line x1="335" y1="590" x2="465" y2="590" stroke="#5d4037" stroke-width="1.5" opacity="0.3"/>
      <line x1="335" y1="615" x2="450" y2="615" stroke="#5d4037" stroke-width="1.5" opacity="0.3"/>
      <!-- 师者像 -->
      <circle cx="400" cy="390" r="30" fill="#9575cd" opacity="0.3"/>
      <rect x="385" y="420" width="30" height="40" fill="#9575cd" opacity="0.2"/>
    </g>

  <!-- 底部渐隐遮罩 -->
  <defs>
    <linearGradient id="fade" x1="0" y1="0" x2="0" y2="1">
      <stop offset="0%" stop-color="transparent"/>
      <stop offset="100%" stop-color="rgba(0,0,0,0.12)"/>
    </linearGradient>
  </defs>
  <rect y="500" width="800" height="300" fill="url(#fade)"/>

  <!-- 作品标题 -->
  <text x="400" y="680" text-anchor="middle"
        font-family="'Noto Serif SC', 'Source Han Serif SC', 'STSong', serif"
        font-size="52" font-weight="700"
        fill="#2c1810"
        style="text-shadow: 0 2px 8px rgba(255,255,255,0.8)">
    师说
  </text>

  <!-- 作者 · 朝代 · 主题 -->
  <text x="400" y="730" text-anchor="middle"
        font-family="'Noto Sans SC', 'PingFang SC', sans-serif"
        font-size="22"
        fill="rgba(44,24,16,0.6)">
    韩愈 · 唐 · 求学与师道
  </text>
</svg>