<svg xmlns="http://www.w3.org/2000/svg" viewBox="0 0 800 800" width="800" height="800">
  <defs>
    <linearGradient id="bg" x1="0" y1="0" x2="1" y2="1">
      <stop offset="0%" stop-color="#0d1b2a"/>
      <stop offset="50%" stop-color="#1b2838"/>
      <stop offset="100%" stop-color="#1a237e"/>
    </linearGradient>
    <filter id="blur">
      <feGaussianBlur in="SourceGraphic" stdDeviation="2"/>
    </filter>
  </defs>

  <!-- 背景渐变 -->
  <rect width="800" height="800" fill="url(#bg)"/>

  <!-- 装饰圆环 -->
  <circle cx="650" cy="150" r="200" fill="white" opacity="0.05"/>
  <circle cx="150" cy="650" r="150" fill="white" opacity="0.03"/>

  <!-- 意境图形 -->
  
    <g opacity="0.3">
      <!-- 大满月 -->
      <circle cx="400" cy="280" r="120" fill="#fff9c4"/>
      <circle cx="400" cy="280" r="110" fill="#fff176" opacity="0.5"/>
      <!-- 月中阴影 -->
      <circle cx="380" cy="260" r="20" fill="#ffe082" opacity="0.3"/>
      <circle cx="420" cy="300" r="15" fill="#ffe082" opacity="0.2"/>
      <circle cx="370" cy="300" r="10" fill="#ffe082" opacity="0.2"/>
      <!-- 楼台 -->
      <rect x="300" y="550" width="80" height="130" fill="#5d4037" opacity="0.5"/>
      <polygon points="290,550 390,550 340,500" fill="#795548" opacity="0.5"/>
      <rect x="450" y="580" width="60" height="100" fill="#5d4037" opacity="0.4"/>
      <polygon points="440,580 520,580 480,540" fill="#795548" opacity="0.4"/>
      <!-- 云 -->
      <ellipse cx="200" cy="200" rx="80" ry="25" fill="white" opacity="0.1"/>
      <ellipse cx="600" cy="250" rx="60" ry="20" fill="white" opacity="0.08"/>
    </g>

  <!-- 底部渐隐遮罩 -->
  <defs>
    <linearGradient id="fade" x1="0" y1="0" x2="0" y2="1">
      <stop offset="0%" stop-color="transparent"/>
      <stop offset="100%" stop-color="rgba(0,0,0,0.35)"/>
    </linearGradient>
  </defs>
  <rect y="500" width="800" height="300" fill="url(#fade)"/>

  <!-- 作品标题 -->
  <text x="400" y="680" text-anchor="middle"
        font-family="'Noto Serif SC', 'Source Han Serif SC', 'STSong', serif"
        font-size="52" font-weight="700"
        fill="#ffffff"
        style="text-shadow: 0 2px 8px rgba(0,0,0,0.5)">
    水调歌头·明月几时有
  </text>

  <!-- 作者 · 朝代 · 主题 -->
  <text x="400" y="730" text-anchor="middle"
        font-family="'Noto Sans SC', 'PingFang SC', sans-serif"
        font-size="22"
        fill="rgba(255,255,255,0.7)">
    苏轼 · 宋 · 月夜怀人
  </text>
</svg>