<svg xmlns="http://www.w3.org/2000/svg" viewBox="0 0 800 800" width="800" height="800">
  <defs>
    <linearGradient id="bg" x1="0" y1="0" x2="1" y2="1">
      <stop offset="0%" stop-color="#f8bbd0"/>
      <stop offset="50%" stop-color="#f48fb1"/>
      <stop offset="100%" stop-color="#e1bee7"/>
    </linearGradient>
    <filter id="blur">
      <feGaussianBlur in="SourceGraphic" stdDeviation="2"/>
    </filter>
  </defs>

  <!-- 背景渐变 -->
  <rect width="800" height="800" fill="url(#bg)"/>

  <!-- 装饰圆环 -->
  <circle cx="650" cy="150" r="200" fill="white" opacity="0.05"/>
  <circle cx="150" cy="650" r="150" fill="white" opacity="0.03"/>

  <!-- 意境图形 -->
  
    <!-- 桃花枝条 -->
    <g opacity="0.25">
      <path d="M0 700 Q200 500 400 600 Q500 650 600 580" stroke="#c2185b" stroke-width="3" fill="none"/>
      <path d="M800 750 Q600 500 500 550 Q400 580 300 520" stroke="#c2185b" stroke-width="3" fill="none"/>
      <circle cx="350" cy="590" r="18" fill="#f48fb1"/>
      <circle cx="380" cy="570" r="14" fill="#f06292"/>
      <circle cx="320" cy="600" r="12" fill="#f8bbd0"/>
      <circle cx="500" cy="555" r="16" fill="#f48fb1"/>
      <circle cx="530" cy="540" r="12" fill="#f06292"/>
      <circle cx="470" cy="565" r="14" fill="#f8bbd0"/>
      <circle cx="200" cy="540" r="10" fill="#f48fb1"/>
      <circle cx="550" cy="560" r="10" fill="#f8bbd0"/>
    </g>
    <g opacity="0.12">
      <!-- 飘落花瓣 -->
      <ellipse cx="150" cy="300" rx="6" ry="4" fill="#f48fb1" transform="rotate(30,150,300)"/>
      <ellipse cx="700" cy="200" rx="5" ry="3" fill="#f8bbd0" transform="rotate(-20,700,200)"/>
      <ellipse cx="400" cy="400" rx="7" ry="4" fill="#f06292" transform="rotate(45,400,400)"/>
      <ellipse cx="250" cy="150" rx="5" ry="3" fill="#f48fb1" transform="rotate(-15,250,150)"/>
    </g>

  <!-- 底部渐隐遮罩 -->
  <defs>
    <linearGradient id="fade" x1="0" y1="0" x2="0" y2="1">
      <stop offset="0%" stop-color="transparent"/>
      <stop offset="100%" stop-color="rgba(0,0,0,0.12)"/>
    </linearGradient>
  </defs>
  <rect y="500" width="800" height="300" fill="url(#fade)"/>

  <!-- 作品标题 -->
  <text x="400" y="680" text-anchor="middle"
        font-family="'Noto Serif SC', 'Source Han Serif SC', 'STSong', serif"
        font-size="52" font-weight="700"
        fill="#2c1810"
        style="text-shadow: 0 2px 8px rgba(255,255,255,0.8)">
    桃花源记
  </text>

  <!-- 作者 · 朝代 · 主题 -->
  <text x="400" y="730" text-anchor="middle"
        font-family="'Noto Sans SC', 'PingFang SC', sans-serif"
        font-size="22"
        fill="rgba(44,24,16,0.6)">
    陶渊明 · 晋 · 理想桃源
  </text>
</svg>