<svg xmlns="http://www.w3.org/2000/svg" viewBox="0 0 800 800" width="800" height="800">
  <defs>
    <linearGradient id="bg" x1="0" y1="0" x2="1" y2="1">
      <stop offset="0%" stop-color="#c8e6c9"/>
      <stop offset="50%" stop-color="#fff9c4"/>
      <stop offset="100%" stop-color="#a5d6a7"/>
    </linearGradient>
    <filter id="blur">
      <feGaussianBlur in="SourceGraphic" stdDeviation="2"/>
    </filter>
  </defs>

  <!-- 背景渐变 -->
  <rect width="800" height="800" fill="url(#bg)"/>

  <!-- 装饰圆环 -->
  <circle cx="650" cy="150" r="200" fill="white" opacity="0.05"/>
  <circle cx="150" cy="650" r="150" fill="white" opacity="0.03"/>

  <!-- 意境图形 -->
  
    <g opacity="0.18">
      <!-- 远山 -->
      <path d="M0 700 Q150 500 300 600 Q400 650 500 550 Q600 450 750 600 L800 700 Z" fill="#2e7d32"/>
      <!-- 亭子 -->
      <rect x="350" y="590" width="8" height="80" fill="#5d4037"/>
      <rect x="440" y="590" width="8" height="80" fill="#5d4037"/>
      <rect x="342" y="585" width="116" height="8" fill="#795548"/>
      <polygon points="330,585 470,585 400,530" fill="#8d6e63"/>
      <polygon points="340,530 460,530 400,480" fill="#a1887f"/>
      <!-- 小溪 -->
      <path d="M0 750 Q200 730 400 750 Q600 770 800 750" stroke="#4fc3f7" stroke-width="3" fill="none" opacity="0.5"/>
    </g>

  <!-- 底部渐隐遮罩 -->
  <defs>
    <linearGradient id="fade" x1="0" y1="0" x2="0" y2="1">
      <stop offset="0%" stop-color="transparent"/>
      <stop offset="100%" stop-color="rgba(0,0,0,0.12)"/>
    </linearGradient>
  </defs>
  <rect y="500" width="800" height="300" fill="url(#fade)"/>

  <!-- 作品标题 -->
  <text x="400" y="680" text-anchor="middle"
        font-family="'Noto Serif SC', 'Source Han Serif SC', 'STSong', serif"
        font-size="52" font-weight="700"
        fill="#2c1810"
        style="text-shadow: 0 2px 8px rgba(255,255,255,0.8)">
    醉翁亭记
  </text>

  <!-- 作者 · 朝代 · 主题 -->
  <text x="400" y="730" text-anchor="middle"
        font-family="'Noto Sans SC', 'PingFang SC', sans-serif"
        font-size="22"
        fill="rgba(44,24,16,0.6)">
    欧阳修 · 宋 · 山水与民乐
  </text>
</svg>